<svg width="1038" height="1038" viewBox="0 0 1038 1038" fill="none" xmlns="http://www.w3.org/2000/svg">
<rect x="1" y="1" width="826.984" height="826.984" transform="translate(791.481 1038) rotate(-162.7)" stroke="white" stroke-width="2"/>
<line y1="-1" x2="828.984" y2="-1" transform="translate(965.86 224.042) rotate(107.3)" stroke="white" stroke-width="2"/>
<line y1="-1" x2="828.984" y2="-1" transform="translate(893.926 201.623) rotate(107.3)" stroke="white" stroke-width="2"/>
<line y1="-1" x2="828.984" y2="-1" transform="translate(821.992 179.216) rotate(107.3)" stroke="white" stroke-width="2"/>
<line y1="-1" x2="828.984" y2="-1" transform="translate(750.058 156.81) rotate(107.3)" stroke="white" stroke-width="2"/>
<line y1="-1" x2="828.984" y2="-1" transform="translate(678.128 134.405) rotate(107.3)" stroke="white" stroke-width="2"/>
<line y1="-1" x2="828.984" y2="-1" transform="translate(606.194 111.999) rotate(107.3)" stroke="white" stroke-width="2"/>
<line y1="-1" x2="828.984" y2="-1" transform="translate(534.261 89.595) rotate(107.3)" stroke="white" stroke-width="2"/>
<line y1="-1" x2="828.984" y2="-1" transform="translate(462.327 67.1892) rotate(107.3)" stroke="white" stroke-width="2"/>
<line y1="-1" x2="828.984" y2="-1" transform="translate(390.393 44.7834) rotate(107.3)" stroke="white" stroke-width="2"/>
<line y1="-1" x2="828.984" y2="-1" transform="translate(318.457 22.377) rotate(107.3)" stroke="white" stroke-width="2"/>
<line y1="-1" x2="828.984" y2="-1" transform="translate(813.437 967.509) rotate(-162.7)" stroke="white" stroke-width="2"/>
<line y1="-1" x2="828.984" y2="-1" transform="translate(833.723 902.376) rotate(-162.7)" stroke="white" stroke-width="2"/>
<line y1="-1" x2="828.984" y2="-1" transform="translate(856.192 830.236) rotate(-162.7)" stroke="white" stroke-width="2"/>
<line y1="-1" x2="828.984" y2="-1" transform="translate(878.661 758.096) rotate(-162.7)" stroke="white" stroke-width="2"/>
<line y1="-1" x2="828.984" y2="-1" transform="translate(901.131 685.956) rotate(-162.7)" stroke="white" stroke-width="2"/>
<line y1="-1" x2="828.984" y2="-1" transform="translate(923.6 613.816) rotate(-162.7)" stroke="white" stroke-width="2"/>
<line y1="-1" x2="828.984" y2="-1" transform="translate(943.373 550.332) rotate(-162.7)" stroke="white" stroke-width="2"/>
<line y1="-1" x2="828.984" y2="-1" transform="translate(963.146 486.849) rotate(-162.7)" stroke="white" stroke-width="2"/>
<line y1="-1" x2="828.984" y2="-1" transform="translate(982.918 423.365) rotate(-162.7)" stroke="white" stroke-width="2"/>
<line y1="-1" x2="828.984" y2="-1" transform="translate(1002.69 359.875) rotate(-162.7)" stroke="white" stroke-width="2"/>
<line y1="-1" x2="828.984" y2="-1" transform="translate(1022.46 296.391) rotate(-162.7)" stroke="white" stroke-width="2"/>
</svg>
