<svg width="1002" height="995" viewBox="0 0 1002 995" fill="none" xmlns="http://www.w3.org/2000/svg">
<line y1="-1" x2="828.984" y2="-1" transform="translate(944.86 202.042) rotate(107.3)" stroke="white" stroke-width="2"/>
<line y1="-1" x2="828.984" y2="-1" transform="translate(872.926 179.623) rotate(107.3)" stroke="white" stroke-width="2"/>
<line y1="-1" x2="828.984" y2="-1" transform="translate(800.992 157.216) rotate(107.3)" stroke="white" stroke-width="2"/>
<line y1="-1" x2="828.984" y2="-1" transform="translate(729.058 134.81) rotate(107.3)" stroke="white" stroke-width="2"/>
<line y1="-1" x2="828.984" y2="-1" transform="translate(657.128 112.405) rotate(107.3)" stroke="white" stroke-width="2"/>
<line y1="-1" x2="828.984" y2="-1" transform="translate(585.194 89.9988) rotate(107.3)" stroke="white" stroke-width="2"/>
<line y1="-1" x2="828.984" y2="-1" transform="translate(513.261 67.595) rotate(107.3)" stroke="white" stroke-width="2"/>
<line y1="-1" x2="828.984" y2="-1" transform="translate(441.327 45.1892) rotate(107.3)" stroke="white" stroke-width="2"/>
<line y1="-1" x2="828.984" y2="-1" transform="translate(369.393 22.7834) rotate(107.3)" stroke="white" stroke-width="2"/>
<line y1="-1" x2="828.984" y2="-1" transform="translate(297.457 0.376953) rotate(107.3)" stroke="white" stroke-width="2"/>
<line y1="-1" x2="828.984" y2="-1" transform="translate(792.437 945.509) rotate(-162.7)" stroke="white" stroke-width="2"/>
<line y1="-1" x2="828.984" y2="-1" transform="translate(812.723 880.376) rotate(-162.7)" stroke="white" stroke-width="2"/>
<line y1="-1" x2="828.984" y2="-1" transform="translate(835.192 808.236) rotate(-162.7)" stroke="white" stroke-width="2"/>
<line y1="-1" x2="828.984" y2="-1" transform="translate(857.661 736.096) rotate(-162.7)" stroke="white" stroke-width="2"/>
<line y1="-1" x2="828.984" y2="-1" transform="translate(880.131 663.956) rotate(-162.7)" stroke="white" stroke-width="2"/>
<line y1="-1" x2="828.984" y2="-1" transform="translate(902.6 591.816) rotate(-162.7)" stroke="white" stroke-width="2"/>
<line y1="-1" x2="828.984" y2="-1" transform="translate(922.373 528.332) rotate(-162.7)" stroke="white" stroke-width="2"/>
<line y1="-1" x2="828.984" y2="-1" transform="translate(942.146 464.849) rotate(-162.7)" stroke="white" stroke-width="2"/>
<line y1="-1" x2="828.984" y2="-1" transform="translate(961.918 401.365) rotate(-162.7)" stroke="white" stroke-width="2"/>
<line y1="-1" x2="828.984" y2="-1" transform="translate(981.691 337.875) rotate(-162.7)" stroke="white" stroke-width="2"/>
<line y1="-1" x2="828.984" y2="-1" transform="translate(1001.46 274.391) rotate(-162.7)" stroke="white" stroke-width="2"/>
</svg>
