<svg width="375" height="747" viewBox="0 0 375 747" fill="none" xmlns="http://www.w3.org/2000/svg">
<line y1="-0.5" x2="500" y2="-0.5" transform="translate(419) rotate(162.7)" stroke="white"/>
<line y1="-0.5" x2="500" y2="-0.5" transform="translate(419.38 77) rotate(162.7)" stroke="white"/>
<line y1="-0.5" x2="500" y2="-0.5" transform="translate(419.76 151) rotate(162.7)" stroke="white"/>
<line y1="-0.5" x2="500" y2="-0.5" transform="translate(420.139 225) rotate(162.7)" stroke="white"/>
<line y1="-0.5" x2="500" y2="-0.5" transform="translate(420.519 299) rotate(162.7)" stroke="white"/>
<line y1="-0.5" x2="500" y2="-0.5" transform="translate(420.898 373) rotate(162.7)" stroke="white"/>
<line y1="-0.5" x2="500" y2="-0.5" transform="translate(421.278 447) rotate(162.7)" stroke="white"/>
<line y1="-0.5" x2="500" y2="-0.5" transform="translate(421.657 521) rotate(162.7)" stroke="white"/>
<line y1="-0.5" x2="500" y2="-0.5" transform="translate(422.037 597) rotate(162.7)" stroke="white"/>
<line y1="-0.5" x2="598" y2="-0.5" transform="translate(316.5 631) rotate(-90)" stroke="white"/>
<line y1="-0.5" x2="598" y2="-0.5" transform="translate(247 652) rotate(-90)" stroke="white"/>
<line y1="-0.5" x2="598" y2="-0.5" transform="translate(177.5 674) rotate(-90)" stroke="white"/>
<line y1="-0.5" x2="597" y2="-0.5" transform="translate(108 694.999) rotate(-90)" stroke="white"/>
<line y1="-0.5" x2="598" y2="-0.5" transform="translate(38.5 716.999) rotate(-90)" stroke="white"/>
</svg>
