<svg shape-rendering="geometricPrecision" width="2405" height="2405" viewBox="0 0 2405 2405" fill="none" xmlns="http://www.w3.org/2000/svg">
<rect x="1" y="1" width="1918" height="1918" transform="translate(1833.14 2404.1) rotate(-162.7)" stroke="white" stroke-width="2"/>
<line y1="-1" x2="1920" y2="-1" transform="translate(2237.02 518.919) rotate(107.3)" stroke="white" stroke-width="2"/>
<line y1="-1" x2="1920" y2="-1" transform="translate(2070.41 467.009) rotate(107.3)" stroke="white" stroke-width="2"/>
<line y1="-1" x2="1920" y2="-1" transform="translate(1903.81 415.115) rotate(107.3)" stroke="white" stroke-width="2"/>
<line y1="-1" x2="1920" y2="-1" transform="translate(1737.2 363.221) rotate(107.3)" stroke="white" stroke-width="2"/>
<line y1="-1" x2="1920" y2="-1" transform="translate(1570.6 311.327) rotate(107.3)" stroke="white" stroke-width="2"/>
<line y1="-1" x2="1920" y2="-1" transform="translate(1403.99 259.433) rotate(107.3)" stroke="white" stroke-width="2"/>
<line y1="-1" x2="1920" y2="-1" transform="translate(1237.39 207.541) rotate(107.3)" stroke="white" stroke-width="2"/>
<line y1="-1" x2="1920" y2="-1" transform="translate(1070.78 155.647) rotate(107.3)" stroke="white" stroke-width="2"/>
<line y1="-1" x2="1920" y2="-1" transform="translate(904.176 103.754) rotate(107.3)" stroke="white" stroke-width="2"/>
<line y1="-1" x2="1920" y2="-1" transform="translate(737.571 51.8591) rotate(107.3)" stroke="white" stroke-width="2"/>
<line y1="-1" x2="1920" y2="-1" transform="translate(1883.99 2240.84) rotate(-162.7)" stroke="white" stroke-width="2"/>
<line y1="-1" x2="1920" y2="-1" transform="translate(1930.98 2089.98) rotate(-162.7)" stroke="white" stroke-width="2"/>
<line y1="-1" x2="1920" y2="-1" transform="translate(1983.02 1922.9) rotate(-162.7)" stroke="white" stroke-width="2"/>
<line y1="-1" x2="1920" y2="-1" transform="translate(2035.06 1755.82) rotate(-162.7)" stroke="white" stroke-width="2"/>
<line y1="-1" x2="1920" y2="-1" transform="translate(2087.1 1588.73) rotate(-162.7)" stroke="white" stroke-width="2"/>
<line y1="-1" x2="1920" y2="-1" transform="translate(2139.14 1421.65) rotate(-162.7)" stroke="white" stroke-width="2"/>
<line y1="-1" x2="1920" y2="-1" transform="translate(2184.94 1274.62) rotate(-162.7)" stroke="white" stroke-width="2"/>
<line y1="-1" x2="1920" y2="-1" transform="translate(2230.73 1127.59) rotate(-162.7)" stroke="white" stroke-width="2"/>
<line y1="-1" x2="1920" y2="-1" transform="translate(2276.53 980.552) rotate(-162.7)" stroke="white" stroke-width="2"/>
<line y1="-1" x2="1920" y2="-1" transform="translate(2322.32 833.519) rotate(-162.7)" stroke="white" stroke-width="2"/>
<line y1="-1" x2="1920" y2="-1" transform="translate(2368.12 686.486) rotate(-162.7)" stroke="white" stroke-width="2"/>
</svg>
