<svg width="2405" height="2405" viewBox="0 0 2405 2405" fill="none" xmlns="http://www.w3.org/2000/svg">
<rect x="0.5" y="0.5" width="1919" height="1919" transform="translate(1833.14 2404.12) rotate(-162.7)" stroke="white"/>
<line y1="-0.5" x2="1920" y2="-0.5" transform="translate(2237.02 518.937) rotate(107.3)" stroke="white"/>
<line y1="-0.5" x2="1920" y2="-0.5" transform="translate(2070.41 467.043) rotate(107.3)" stroke="white"/>
<line y1="-0.5" x2="1920" y2="-0.5" transform="translate(1903.81 415.149) rotate(107.3)" stroke="white"/>
<line y1="-0.5" x2="1920" y2="-0.5" transform="translate(1737.2 363.255) rotate(107.3)" stroke="white"/>
<line y1="-0.5" x2="1920" y2="-0.5" transform="translate(1570.6 311.361) rotate(107.3)" stroke="white"/>
<line y1="-0.5" x2="1920" y2="-0.5" transform="translate(1403.99 259.467) rotate(107.3)" stroke="white"/>
<line y1="-0.5" x2="1920" y2="-0.5" transform="translate(1237.39 207.574) rotate(107.3)" stroke="white"/>
<line y1="-0.5" x2="1920" y2="-0.5" transform="translate(1070.78 155.68) rotate(107.3)" stroke="white"/>
<line y1="-0.5" x2="1920" y2="-0.5" transform="translate(904.176 103.786) rotate(107.3)" stroke="white"/>
<line y1="-0.5" x2="1920" y2="-0.5" transform="translate(737.571 51.8919) rotate(107.3)" stroke="white"/>
<line y1="-0.5" x2="1920" y2="-0.5" transform="translate(1883.99 2240.85) rotate(-162.7)" stroke="white"/>
<line y1="-0.5" x2="1920" y2="-0.5" transform="translate(1930.98 2090) rotate(-162.7)" stroke="white"/>
<line y1="-0.5" x2="1920" y2="-0.5" transform="translate(1983.02 1922.92) rotate(-162.7)" stroke="white"/>
<line y1="-0.5" x2="1920" y2="-0.5" transform="translate(2035.06 1755.84) rotate(-162.7)" stroke="white"/>
<line y1="-0.5" x2="1920" y2="-0.5" transform="translate(2087.1 1588.75) rotate(-162.7)" stroke="white"/>
<line y1="-0.5" x2="1920" y2="-0.5" transform="translate(2139.14 1421.67) rotate(-162.7)" stroke="white"/>
<line y1="-0.5" x2="1920" y2="-0.5" transform="translate(2184.94 1274.64) rotate(-162.7)" stroke="white"/>
<line y1="-0.5" x2="1920" y2="-0.5" transform="translate(2230.73 1127.6) rotate(-162.7)" stroke="white"/>
<line y1="-0.5" x2="1920" y2="-0.5" transform="translate(2276.53 980.57) rotate(-162.7)" stroke="white"/>
<line y1="-0.5" x2="1920" y2="-0.5" transform="translate(2322.32 833.537) rotate(-162.7)" stroke="white"/>
<line y1="-0.5" x2="1920" y2="-0.5" transform="translate(2368.12 686.504) rotate(-162.7)" stroke="white"/>
</svg>
