<svg width="645" height="345" viewBox="0 0 645 345" fill="none" xmlns="http://www.w3.org/2000/svg">
<path d="M185.614 174.6C188.681 174.6 190.881 175.267 192.214 176.6C193.681 177.933 194.414 179.667 194.414 181.8C194.414 185.267 193.348 188.333 191.214 191C189.214 193.667 186.014 195.067 181.614 195.2C170.948 195.467 161.481 194.667 153.214 192.8C143.748 212.667 132.281 229.2 118.814 242.4C105.481 255.467 92.0809 262 78.6142 262C64.7475 262 54.4142 253.933 47.6142 237.8C40.8142 221.667 37.4142 199.867 37.4142 172.4C37.4142 148.933 39.0809 127.867 42.4142 109.2C43.6142 102.267 45.2809 97.6 47.4142 95.2C49.6809 92.6667 53.4809 91.4 58.8142 91.4C67.6142 91.4 72.0142 95.2 72.0142 102.8C72.0142 103.6 71.8809 105.067 71.6142 107.2C67.6142 131.2 65.6142 152.933 65.6142 172.4C65.6142 192.8 67.2809 208.333 70.6142 219C74.0809 229.533 79.2142 234.8 86.0142 234.8C92.9475 234.8 100.481 230 108.614 220.4C116.748 210.8 124.214 198.733 131.014 184.2C122.881 179.133 116.748 172.6 112.614 164.6C108.481 156.467 106.414 147.133 106.414 136.6C106.414 126.067 108.014 117.2 111.214 110C114.548 102.667 119.014 97.2 124.614 93.6C130.348 90 136.681 88.2 143.614 88.2C152.148 88.2 158.881 91.2667 163.814 97.4C168.881 103.533 171.414 111.933 171.414 122.6C171.414 137.933 168.081 154.667 161.414 172.8C168.481 174 176.548 174.6 185.614 174.6ZM126.614 135.2C126.614 148.267 130.814 157.933 139.214 164.2C144.414 149.267 147.014 136.933 147.014 127.2C147.014 121.6 146.281 117.533 144.814 115C143.348 112.333 141.348 111 138.814 111C135.214 111 132.281 113.133 130.014 117.4C127.748 121.533 126.614 127.467 126.614 135.2ZM264.153 216.4C265.887 216.4 267.22 217.2 268.153 218.8C269.22 220.4 269.753 222.6 269.753 225.4C269.753 230.733 268.487 234.867 265.953 237.8C261.02 243.8 254.02 249.333 244.953 254.4C236.02 259.467 226.42 262 216.153 262C202.153 262 191.287 258.2 183.553 250.6C175.82 243 171.953 232.6 171.953 219.4C171.953 210.2 173.887 201.667 177.753 193.8C181.62 185.8 186.953 179.467 193.753 174.8C200.687 170.133 208.487 167.8 217.153 167.8C224.887 167.8 231.087 170.133 235.753 174.8C240.42 179.333 242.753 185.533 242.753 193.4C242.753 202.6 239.42 210.533 232.753 217.2C226.22 223.733 215.087 228.933 199.353 232.8C202.687 238.933 209.02 242 218.353 242C224.353 242 231.153 239.933 238.753 235.8C246.487 231.533 253.153 226 258.753 219.2C260.353 217.333 262.153 216.4 264.153 216.4ZM213.753 187.4C208.82 187.4 204.62 190.267 201.153 196C197.82 201.733 196.153 208.667 196.153 216.8V217.2C204.02 215.333 210.22 212.533 214.753 208.8C219.287 205.067 221.553 200.733 221.553 195.8C221.553 193.267 220.82 191.267 219.353 189.8C218.02 188.2 216.153 187.4 213.753 187.4ZM267.669 262C262.602 262 259.002 259.333 256.869 254C254.869 248.667 253.869 240.133 253.869 228.4C253.869 211.067 256.336 194.6 261.269 179C262.469 175.133 264.402 172.333 267.069 170.6C269.869 168.733 273.736 167.8 278.669 167.8C281.336 167.8 283.202 168.133 284.269 168.8C285.336 169.467 285.869 170.733 285.869 172.6C285.869 174.733 284.869 179.533 282.869 187C281.536 192.333 280.469 197 279.669 201C278.869 205 278.202 209.933 277.669 215.8C282.069 204.333 287.002 195 292.469 187.8C297.936 180.6 303.269 175.467 308.469 172.4C313.802 169.333 318.669 167.8 323.069 167.8C331.736 167.8 336.069 172.133 336.069 180.8C336.069 186 334.602 195.4 331.669 209C329.136 220.6 327.869 228.267 327.869 232C327.869 237.333 329.802 240 333.669 240C336.336 240 339.469 238.4 343.069 235.2C346.802 231.867 351.736 226.533 357.869 219.2C359.469 217.333 361.269 216.4 363.269 216.4C365.002 216.4 366.336 217.2 367.269 218.8C368.336 220.4 368.869 222.6 368.869 225.4C368.869 230.733 367.602 234.867 365.069 237.8C359.336 244.867 353.136 250.667 346.469 255.2C339.936 259.733 332.469 262 324.069 262C317.269 262 312.136 260.067 308.669 256.2C305.202 252.2 303.469 246.467 303.469 239C303.469 235.267 304.402 228.6 306.269 219C308.002 210.6 308.869 204.8 308.869 201.6C308.869 199.467 308.136 198.4 306.669 198.4C304.936 198.4 302.469 200.667 299.269 205.2C296.202 209.6 293.002 215.467 289.669 222.8C286.469 230.133 283.869 237.867 281.869 246C280.402 252.267 278.669 256.533 276.669 258.8C274.802 260.933 271.802 262 267.669 262ZM373.088 262C367.088 262 362.154 259.267 358.288 253.8C354.554 248.2 352.688 241.267 352.688 233C352.688 223 353.354 213.867 354.688 205.6C356.021 197.2 358.221 188.333 361.288 179C362.621 175 364.488 172.133 366.888 170.4C369.288 168.667 373.088 167.8 378.288 167.8C381.221 167.8 383.221 168.267 384.288 169.2C385.488 170.133 386.088 171.533 386.088 173.4C386.088 174.467 385.354 178.067 383.888 184.2C382.554 189.133 381.488 193.6 380.688 197.6C378.021 211.6 376.688 220.933 376.688 225.6C376.688 228.4 377.021 230.4 377.688 231.6C378.354 232.667 379.421 233.2 380.888 233.2C382.888 233.2 385.354 231.2 388.288 227.2C391.354 223.2 394.554 217.133 397.888 209C401.354 200.867 404.688 190.867 407.888 179C408.954 175 410.554 172.133 412.688 170.4C414.954 168.667 418.288 167.8 422.688 167.8C425.754 167.8 427.888 168.2 429.088 169C430.288 169.667 430.888 171 430.888 173C430.888 176.333 429.221 185.467 425.888 200.4C422.154 217.467 420.288 228 420.288 232C420.288 234.533 420.821 236.533 421.888 238C422.954 239.333 424.354 240 426.088 240C428.754 240 431.888 238.4 435.488 235.2C439.221 231.867 444.154 226.533 450.288 219.2C451.888 217.333 453.688 216.4 455.688 216.4C457.421 216.4 458.754 217.2 459.688 218.8C460.754 220.4 461.288 222.6 461.288 225.4C461.288 230.733 460.021 234.867 457.488 237.8C451.754 244.867 445.554 250.667 438.888 255.2C432.354 259.733 424.888 262 416.488 262C410.088 262 405.354 259.533 402.288 254.6C399.354 249.667 397.888 242.733 397.888 233.8C395.621 242.867 392.221 249.867 387.688 254.8C383.154 259.6 378.288 262 373.088 262ZM482.27 266.4C475.337 266.4 470.004 264.8 466.27 261.6C462.67 258.4 460.87 254.8 460.87 250.8C460.87 247.333 462.137 244.333 464.67 241.8C467.204 239.267 470.937 238 475.87 238C477.604 238 479.604 238.2 481.87 238.6C484.27 238.867 486.07 239.067 487.27 239.2C487.137 235.733 486.337 232.467 484.87 229.4C483.537 226.333 481.804 223.4 479.67 220.6C477.537 217.667 475.537 215.133 473.67 213C469.537 220.867 465.404 227.4 461.27 232.6C457.27 237.8 452.87 242.733 448.07 247.4C445.67 249.8 443.137 251 440.47 251C438.337 251 436.604 250.267 435.27 248.8C433.937 247.2 433.27 245.267 433.27 243C433.27 240.333 434.204 237.867 436.07 235.6L438.67 232.4C446.004 223.333 451.537 215.867 455.27 210C457.67 206.133 460.07 201.533 462.47 196.2C465.004 190.867 468.27 183.6 472.27 174.4C474.804 168.533 480.07 165.6 488.07 165.6C491.804 165.6 494.404 165.933 495.87 166.6C497.337 167.267 498.07 168.333 498.07 169.8C498.07 170.6 497.804 171.867 497.27 173.6C496.737 175.333 496.004 177.067 495.07 178.8C492.67 183.6 491.47 187.667 491.47 191C491.47 193 492.137 195.2 493.47 197.6C494.937 200 497.137 203 500.07 206.6C504.337 212.2 507.537 217 509.67 221C511.937 224.867 513.07 229.133 513.07 233.8C513.07 239.4 511.737 244.733 509.07 249.8C506.537 254.733 502.937 258.733 498.27 261.8C493.604 264.867 488.27 266.4 482.27 266.4Z" transform="matrix(1 0 -0.105533 0.994416 27.0044 0)" fill="white"/>
<path d="M142.241 70.576C137.121 70.576 133.516 69.0613 131.425 66.032C129.335 62.96 128.289 58.736 128.289 53.36V35.056C128.289 29.3813 129.313 25.072 131.361 22.128C133.409 19.184 137.036 17.712 142.241 17.712C146.892 17.712 150.22 18.9707 152.225 21.488C154.273 24.0053 155.297 27.7173 155.297 32.624V36.72H148.449V33.072C148.449 30.6827 148.343 28.848 148.129 27.568C147.916 26.288 147.361 25.264 146.465 24.496C145.612 23.728 144.225 23.344 142.305 23.344C140.343 23.344 138.871 23.7707 137.889 24.624C136.951 25.4347 136.332 26.5867 136.033 28.08C135.735 29.5307 135.585 31.4933 135.585 33.968V54.512C135.585 57.1573 135.799 59.2267 136.225 60.72C136.652 62.2133 137.335 63.28 138.273 63.92C139.255 64.56 140.599 64.88 142.305 64.88C144.14 64.88 145.505 64.4747 146.401 63.664C147.297 62.8533 147.852 61.744 148.065 60.336C148.321 58.928 148.449 57.008 148.449 54.576V50.736H155.297V54.576C155.297 59.7387 154.316 63.7067 152.353 66.48C150.433 69.2107 147.063 70.576 142.241 70.576ZM171.787 70.512C167.861 70.512 165.067 69.36 163.403 67.056C161.781 64.7093 160.971 61.3173 160.971 56.88V46.128C160.971 41.6907 161.781 38.32 163.403 36.016C165.067 33.6693 167.861 32.496 171.787 32.496C175.669 32.496 178.421 33.6693 180.043 36.016C181.707 38.32 182.539 41.6907 182.539 46.128V56.88C182.539 61.3173 181.707 64.7093 180.043 67.056C178.421 69.36 175.669 70.512 171.787 70.512ZM171.787 65.456C173.024 65.456 173.92 65.0933 174.475 64.368C175.029 63.6427 175.371 62.7467 175.499 61.68C175.627 60.6133 175.691 59.1627 175.691 57.328V45.744C175.691 43.9093 175.627 42.4587 175.499 41.392C175.371 40.2827 175.029 39.3653 174.475 38.64C173.92 37.9147 173.024 37.552 171.787 37.552C170.549 37.552 169.632 37.9147 169.035 38.64C168.48 39.3653 168.139 40.2827 168.011 41.392C167.883 42.4587 167.819 43.9093 167.819 45.744V57.328C167.819 59.1627 167.883 60.6133 168.011 61.68C168.139 62.7467 168.48 63.6427 169.035 64.368C169.632 65.0933 170.549 65.456 171.787 65.456ZM189.438 18.16H196.286V70H189.438V18.16ZM213.663 70.512C210.805 70.512 208.586 69.9787 207.007 68.912C205.429 67.8027 204.319 66.1813 203.679 64.048C203.039 61.9147 202.719 59.1413 202.719 55.728V47.28C202.719 42.16 203.509 38.4267 205.087 36.08C206.709 33.6907 209.567 32.496 213.663 32.496C216.65 32.496 218.89 33.1147 220.383 34.352C221.919 35.5893 222.922 37.3387 223.391 39.6C223.903 41.8187 224.159 44.8267 224.159 48.624V51.632H209.567V59.056C209.567 61.3173 209.887 62.96 210.527 63.984C211.21 64.9653 212.277 65.456 213.727 65.456C215.178 65.456 216.159 64.9653 216.671 63.984C217.183 62.96 217.439 61.424 217.439 59.376V57.136H224.095V58.544C224.095 62.4267 223.263 65.392 221.599 67.44C219.935 69.488 217.29 70.512 213.663 70.512ZM217.439 47.92V44.592C217.439 42.0747 217.183 40.2827 216.671 39.216C216.202 38.1067 215.178 37.552 213.599 37.552C212.49 37.552 211.637 37.808 211.039 38.32C210.485 38.832 210.101 39.6853 209.887 40.88C209.674 42.032 209.567 43.7173 209.567 45.936V47.92H217.439ZM240.473 70.512C237.571 70.512 235.331 69.936 233.753 68.784C232.174 67.5893 231.086 65.9467 230.489 63.856C229.934 61.7227 229.657 59.0347 229.657 55.792V47.28C229.657 43.952 229.934 41.2213 230.489 39.088C231.086 36.9547 232.174 35.3333 233.753 34.224C235.331 33.072 237.571 32.496 240.473 32.496C243.118 32.496 245.166 32.9227 246.617 33.776C248.11 34.6293 249.134 35.9093 249.689 37.616C250.286 39.28 250.585 41.456 250.585 44.144V46.32H244.377V44.08C244.377 41.648 244.099 39.9627 243.545 39.024C243.033 38.0427 242.03 37.552 240.537 37.552C239.385 37.552 238.531 37.808 237.977 38.32C237.422 38.832 237.038 39.664 236.825 40.816C236.611 41.968 236.505 43.6533 236.505 45.872V57.52C236.505 59.6533 236.633 61.296 236.889 62.448C237.145 63.5573 237.55 64.3467 238.105 64.816C238.702 65.2427 239.534 65.456 240.601 65.456C242.179 65.456 243.203 64.944 243.673 63.92C244.142 62.8533 244.377 61.232 244.377 59.056V56.048H250.585V58.608C250.585 62.6187 249.838 65.6053 248.345 67.568C246.894 69.5307 244.27 70.512 240.473 70.512ZM240.921 85.04C239.683 85.04 238.254 84.8267 236.633 84.4V80.944C237.657 81.2427 238.745 81.392 239.897 81.392C241.049 81.392 241.987 81.1787 242.713 80.752C243.438 80.368 243.801 79.7493 243.801 78.896C243.801 77.8293 243.353 77.0187 242.457 76.464C241.603 75.952 240.238 75.568 238.361 75.312V70H241.817V73.584C243.95 73.584 245.657 74.0747 246.937 75.056C248.259 76.08 248.921 77.424 248.921 79.088C248.921 81.0507 248.174 82.5227 246.681 83.504C245.23 84.528 243.31 85.04 240.921 85.04ZM263.329 70.512C261.921 70.512 260.641 70.1067 259.489 69.296C258.38 68.4853 257.505 67.4187 256.865 66.096C256.225 64.7733 255.905 63.3867 255.905 61.936C255.905 59.0347 256.524 56.688 257.761 54.896C258.999 53.0613 260.577 51.6107 262.497 50.544C264.417 49.4773 267.084 48.2613 270.497 46.896V44.272C270.497 41.84 270.241 40.1333 269.729 39.152C269.26 38.128 268.279 37.616 266.785 37.616C264.183 37.616 262.881 39.3653 262.881 42.864V44.72L256.097 44.464C256.183 40.368 257.121 37.36 258.913 35.44C260.705 33.4773 263.479 32.496 267.233 32.496C270.775 32.496 273.335 33.4773 274.913 35.44C276.535 37.36 277.345 40.2827 277.345 44.208V61.104C277.345 63.8773 277.559 66.8427 277.985 70H271.713C271.244 67.568 270.945 65.7547 270.817 64.56C270.305 66.224 269.409 67.632 268.129 68.784C266.892 69.936 265.292 70.512 263.329 70.512ZM266.017 64.624C266.913 64.624 267.788 64.2827 268.641 63.6C269.495 62.8747 270.113 62.192 270.497 61.552V51.056C268.663 52.08 267.233 52.976 266.209 53.744C265.228 54.4693 264.396 55.3227 263.713 56.304C263.073 57.2853 262.753 58.4587 262.753 59.824C262.753 61.36 263.031 62.5547 263.585 63.408C264.14 64.2187 264.951 64.624 266.017 64.624ZM272.097 25.2C271.244 25.2 270.455 25.0507 269.729 24.752C269.047 24.4533 268.257 24.0267 267.361 23.472C266.508 23.0027 265.825 22.6613 265.313 22.448C264.801 22.192 264.268 22.064 263.713 22.064C262.945 22.064 262.391 22.2773 262.049 22.704C261.708 23.088 261.537 23.7493 261.537 24.688H257.633C257.633 20.08 259.34 17.776 262.753 17.776C263.479 17.776 264.161 17.9253 264.801 18.224C265.484 18.48 266.252 18.864 267.105 19.376C267.959 19.888 268.641 20.272 269.153 20.528C269.708 20.7413 270.284 20.848 270.881 20.848C271.649 20.848 272.183 20.656 272.481 20.272C272.823 19.8453 272.993 19.1413 272.993 18.16H276.833C276.833 20.336 276.471 22.064 275.745 23.344C275.063 24.5813 273.847 25.2 272.097 25.2ZM294.099 70.512C290.174 70.512 287.379 69.36 285.715 67.056C284.094 64.7093 283.283 61.3173 283.283 56.88V46.128C283.283 41.6907 284.094 38.32 285.715 36.016C287.379 33.6693 290.174 32.496 294.099 32.496C297.982 32.496 300.734 33.6693 302.355 36.016C304.019 38.32 304.851 41.6907 304.851 46.128V56.88C304.851 61.3173 304.019 64.7093 302.355 67.056C300.734 69.36 297.982 70.512 294.099 70.512ZM294.099 65.456C295.337 65.456 296.233 65.0933 296.787 64.368C297.342 63.6427 297.683 62.7467 297.811 61.68C297.939 60.6133 298.003 59.1627 298.003 57.328V45.744C298.003 43.9093 297.939 42.4587 297.811 41.392C297.683 40.2827 297.342 39.3653 296.787 38.64C296.233 37.9147 295.337 37.552 294.099 37.552C292.862 37.552 291.945 37.9147 291.347 38.64C290.793 39.3653 290.451 40.2827 290.323 41.392C290.195 42.4587 290.131 43.9093 290.131 45.744V57.328C290.131 59.1627 290.195 60.6133 290.323 61.68C290.451 62.7467 290.793 63.6427 291.347 64.368C291.945 65.0933 292.862 65.456 294.099 65.456ZM334.312 70.512C331.112 70.512 328.765 69.36 327.272 67.056C325.778 64.7093 325.032 60.848 325.032 55.472V48.304C325.032 43.3973 325.672 39.536 326.952 36.72C328.274 33.904 330.664 32.496 334.12 32.496C336.296 32.496 338.344 33.456 340.264 35.376V18.16H347.112V70H340.264V67.632C338.472 69.552 336.488 70.512 334.312 70.512ZM336.04 65.136C337.405 65.136 338.813 64.6667 340.264 63.728V39.472C338.685 38.4053 337.234 37.872 335.912 37.872C333.224 37.872 331.88 40.4533 331.88 45.616V56.048C331.88 59.0347 332.157 61.296 332.712 62.832C333.266 64.368 334.376 65.136 336.04 65.136ZM364.288 70.512C361.43 70.512 359.211 69.9787 357.632 68.912C356.054 67.8027 354.944 66.1813 354.304 64.048C353.664 61.9147 353.344 59.1413 353.344 55.728V47.28C353.344 42.16 354.134 38.4267 355.712 36.08C357.334 33.6907 360.192 32.496 364.288 32.496C367.275 32.496 369.515 33.1147 371.008 34.352C372.544 35.5893 373.547 37.3387 374.016 39.6C374.528 41.8187 374.784 44.8267 374.784 48.624V51.632H360.192V59.056C360.192 61.3173 360.512 62.96 361.152 63.984C361.835 64.9653 362.902 65.456 364.352 65.456C365.803 65.456 366.784 64.9653 367.296 63.984C367.808 62.96 368.064 61.424 368.064 59.376V57.136H374.72V58.544C374.72 62.4267 373.888 65.392 372.224 67.44C370.56 69.488 367.915 70.512 364.288 70.512ZM368.064 47.92V44.592C368.064 42.0747 367.808 40.2827 367.296 39.216C366.827 38.1067 365.803 37.552 364.224 37.552C363.115 37.552 362.262 37.808 361.664 38.32C361.11 38.832 360.726 39.6853 360.512 40.88C360.299 42.032 360.192 43.7173 360.192 45.936V47.92H368.064ZM404.187 70.512C400.987 70.512 398.64 69.36 397.147 67.056C395.653 64.7093 394.907 60.848 394.907 55.472V48.304C394.907 43.3973 395.547 39.536 396.827 36.72C398.149 33.904 400.539 32.496 403.995 32.496C406.171 32.496 408.219 33.456 410.139 35.376V18.16H416.987V70H410.139V67.632C408.347 69.552 406.363 70.512 404.187 70.512ZM405.915 65.136C407.28 65.136 408.688 64.6667 410.139 63.728V39.472C408.56 38.4053 407.109 37.872 405.787 37.872C403.099 37.872 401.755 40.4533 401.755 45.616V56.048C401.755 59.0347 402.032 61.296 402.587 62.832C403.141 64.368 404.251 65.136 405.915 65.136ZM424.371 20.336H431.219V27.504H424.371V20.336ZM424.371 33.008H431.219V70H424.371V33.008ZM436.052 33.008H442.964L447.508 62.768L452.116 33.008H458.772L451.732 70H443.348L436.052 33.008ZM469.829 70.512C468.421 70.512 467.141 70.1067 465.989 69.296C464.88 68.4853 464.005 67.4187 463.365 66.096C462.725 64.7733 462.405 63.3867 462.405 61.936C462.405 59.0347 463.024 56.688 464.261 54.896C465.499 53.0613 467.077 51.6107 468.997 50.544C470.917 49.4773 473.584 48.2613 476.997 46.896V44.272C476.997 41.84 476.741 40.1333 476.229 39.152C475.76 38.128 474.779 37.616 473.285 37.616C470.683 37.616 469.381 39.3653 469.381 42.864V44.72L462.597 44.464C462.683 40.368 463.621 37.36 465.413 35.44C467.205 33.4773 469.979 32.496 473.733 32.496C477.275 32.496 479.835 33.4773 481.413 35.44C483.035 37.36 483.845 40.2827 483.845 44.208V61.104C483.845 63.8773 484.059 66.8427 484.485 70H478.213C477.744 67.568 477.445 65.7547 477.317 64.56C476.805 66.224 475.909 67.632 474.629 68.784C473.392 69.936 471.792 70.512 469.829 70.512ZM472.517 64.624C473.413 64.624 474.288 64.2827 475.141 63.6C475.995 62.8747 476.613 62.192 476.997 61.552V51.056C475.163 52.08 473.733 52.976 472.709 53.744C471.728 54.4693 470.896 55.3227 470.213 56.304C469.573 57.2853 469.253 58.4587 469.253 59.824C469.253 61.36 469.531 62.5547 470.085 63.408C470.64 64.2187 471.451 64.624 472.517 64.624ZM498.999 70.512C496.013 70.512 493.581 69.5733 491.703 67.696C489.869 65.8187 488.823 63.3013 488.567 60.144L494.263 58.416C494.605 60.8053 495.181 62.576 495.991 63.728C496.845 64.88 498.039 65.456 499.575 65.456C500.77 65.456 501.687 65.1147 502.327 64.432C503.01 63.7067 503.351 62.7467 503.351 61.552C503.351 60.4853 503.117 59.5253 502.647 58.672C502.178 57.8187 501.41 56.944 500.343 56.048L494.007 50.608C492.557 49.3707 491.426 48.0693 490.615 46.704C489.847 45.296 489.463 43.5893 489.463 41.584C489.463 38.7253 490.317 36.5067 492.023 34.928C493.73 33.3067 496.055 32.496 498.999 32.496C501.815 32.496 504.013 33.4133 505.591 35.248C507.213 37.04 508.151 39.3653 508.407 42.224L503.799 43.952C503.501 41.8613 503.01 40.2827 502.327 39.216C501.645 38.1067 500.621 37.552 499.255 37.552C498.146 37.552 497.25 37.9147 496.567 38.64C495.927 39.3653 495.607 40.2613 495.607 41.328C495.607 42.6933 496.226 43.9307 497.463 45.04L503.991 51.056C505.655 52.592 506.935 54.1067 507.831 55.6C508.77 57.0933 509.239 58.9067 509.239 61.04C509.239 64.112 508.322 66.4587 506.487 68.08C504.653 69.7013 502.157 70.512 498.999 70.512Z" transform="matrix(1 0 -0.105533 0.994416 8.77399 260)" fill="white"/>
</svg>
