<svg width="150" height="91" viewBox="0 0 150 91" fill="none" xmlns="http://www.w3.org/2000/svg">
<path d="M51.2943 43.4C52.0609 43.4 52.6109 43.5667 52.9443 43.9C53.3109 44.2333 53.4943 44.6667 53.4943 45.2C53.4943 46.0667 53.2276 46.8333 52.6943 47.5C52.1943 48.1667 51.3943 48.5167 50.2943 48.55C47.6276 48.6167 45.2609 48.4167 43.1943 47.95C40.8276 52.9167 37.9609 57.05 34.5943 60.35C31.2609 63.6167 27.9109 65.25 24.5443 65.25C21.0776 65.25 18.4943 63.2333 16.7943 59.2C15.0943 55.1667 14.2443 49.7167 14.2443 42.85C14.2443 36.9833 14.6609 31.7167 15.4943 27.05C15.7943 25.3167 16.2109 24.15 16.7443 23.55C17.3109 22.9167 18.2609 22.6 19.5943 22.6C21.7943 22.6 22.8943 23.55 22.8943 25.45C22.8943 25.65 22.8609 26.0167 22.7943 26.55C21.7943 32.55 21.2943 37.9833 21.2943 42.85C21.2943 47.95 21.7109 51.8333 22.5443 54.5C23.4109 57.1333 24.6943 58.45 26.3943 58.45C28.1276 58.45 30.0109 57.25 32.0443 54.85C34.0776 52.45 35.9443 49.4333 37.6443 45.8C35.6109 44.5333 34.0776 42.9 33.0443 40.9C32.0109 38.8667 31.4943 36.5333 31.4943 33.9C31.4943 31.2667 31.8943 29.05 32.6943 27.25C33.5276 25.4167 34.6443 24.05 36.0443 23.15C37.4776 22.25 39.0609 21.8 40.7943 21.8C42.9276 21.8 44.6109 22.5667 45.8443 24.1C47.1109 25.6333 47.7443 27.7333 47.7443 30.4C47.7443 34.2333 46.9109 38.4167 45.2443 42.95C47.0109 43.25 49.0276 43.4 51.2943 43.4ZM36.5443 33.55C36.5443 36.8167 37.5943 39.2333 39.6943 40.8C40.9943 37.0667 41.6443 33.9833 41.6443 31.55C41.6443 30.15 41.4609 29.1333 41.0943 28.5C40.7276 27.8333 40.2276 27.5 39.5943 27.5C38.6943 27.5 37.9609 28.0333 37.3943 29.1C36.8276 30.1333 36.5443 31.6167 36.5443 33.55ZM70.929 53.85C71.3624 53.85 71.6957 54.05 71.929 54.45C72.1957 54.85 72.329 55.4 72.329 56.1C72.329 57.4333 72.0124 58.4667 71.379 59.2C70.1457 60.7 68.3957 62.0833 66.129 63.35C63.8957 64.6167 61.4957 65.25 58.929 65.25C55.429 65.25 52.7124 64.3 50.779 62.4C48.8457 60.5 47.879 57.9 47.879 54.6C47.879 52.3 48.3624 50.1667 49.329 48.2C50.2957 46.2 51.629 44.6167 53.329 43.45C55.0624 42.2833 57.0124 41.7 59.179 41.7C61.1124 41.7 62.6624 42.2833 63.829 43.45C64.9957 44.5833 65.579 46.1333 65.579 48.1C65.579 50.4 64.7457 52.3833 63.079 54.05C61.4457 55.6833 58.6624 56.9833 54.729 57.95C55.5624 59.4833 57.1457 60.25 59.479 60.25C60.979 60.25 62.679 59.7333 64.579 58.7C66.5124 57.6333 68.179 56.25 69.579 54.55C69.979 54.0833 70.429 53.85 70.929 53.85ZM58.329 46.6C57.0957 46.6 56.0457 47.3167 55.179 48.75C54.3457 50.1833 53.929 51.9167 53.929 53.95V54.05C55.8957 53.5833 57.4457 52.8833 58.579 51.95C59.7124 51.0167 60.279 49.9333 60.279 48.7C60.279 48.0667 60.0957 47.5667 59.729 47.2C59.3957 46.8 58.929 46.6 58.329 46.6ZM71.8079 65.25C70.5413 65.25 69.6413 64.5833 69.1079 63.25C68.6079 61.9167 68.3579 59.7833 68.3579 56.85C68.3579 52.5167 68.9746 48.4 70.2079 44.5C70.5079 43.5333 70.9913 42.8333 71.6579 42.4C72.3579 41.9333 73.3246 41.7 74.5579 41.7C75.2246 41.7 75.6913 41.7833 75.9579 41.95C76.2246 42.1167 76.3579 42.4333 76.3579 42.9C76.3579 43.4333 76.1079 44.6333 75.6079 46.5C75.2746 47.8333 75.0079 49 74.8079 50C74.6079 51 74.4413 52.2333 74.3079 53.7C75.4079 50.8333 76.6413 48.5 78.0079 46.7C79.3746 44.9 80.7079 43.6167 82.0079 42.85C83.3413 42.0833 84.5579 41.7 85.6579 41.7C87.8246 41.7 88.9079 42.7833 88.9079 44.95C88.9079 46.25 88.5413 48.6 87.8079 52C87.1746 54.9 86.8579 56.8167 86.8579 57.75C86.8579 59.0833 87.3413 59.75 88.3079 59.75C88.9746 59.75 89.7579 59.35 90.6579 58.55C91.5913 57.7167 92.8246 56.3833 94.3579 54.55C94.7579 54.0833 95.2079 53.85 95.7079 53.85C96.1413 53.85 96.4746 54.05 96.7079 54.45C96.9746 54.85 97.1079 55.4 97.1079 56.1C97.1079 57.4333 96.7913 58.4667 96.1579 59.2C94.7246 60.9667 93.1746 62.4167 91.5079 63.55C89.8746 64.6833 88.0079 65.25 85.9079 65.25C84.2079 65.25 82.9246 64.7667 82.0579 63.8C81.1913 62.8 80.7579 61.3667 80.7579 59.5C80.7579 58.5667 80.9913 56.9 81.4579 54.5C81.8913 52.4 82.1079 50.95 82.1079 50.15C82.1079 49.6167 81.9246 49.35 81.5579 49.35C81.1246 49.35 80.5079 49.9167 79.7079 51.05C78.9413 52.15 78.1413 53.6167 77.3079 55.45C76.5079 57.2833 75.8579 59.2167 75.3579 61.25C74.9913 62.8167 74.5579 63.8833 74.0579 64.45C73.5913 64.9833 72.8413 65.25 71.8079 65.25ZM98.1626 65.25C96.6626 65.25 95.4293 64.5667 94.4626 63.2C93.5293 61.8 93.0626 60.0667 93.0626 58C93.0626 55.5 93.2293 53.2167 93.5626 51.15C93.896 49.05 94.446 46.8333 95.2126 44.5C95.546 43.5 96.0126 42.7833 96.6126 42.35C97.2126 41.9167 98.1626 41.7 99.4626 41.7C100.196 41.7 100.696 41.8167 100.963 42.05C101.263 42.2833 101.413 42.6333 101.413 43.1C101.413 43.3667 101.229 44.2667 100.863 45.8C100.529 47.0333 100.263 48.15 100.063 49.15C99.396 52.65 99.0626 54.9833 99.0626 56.15C99.0626 56.85 99.146 57.35 99.3126 57.65C99.4793 57.9167 99.746 58.05 100.113 58.05C100.613 58.05 101.229 57.55 101.963 56.55C102.729 55.55 103.529 54.0333 104.363 52C105.229 49.9667 106.063 47.4667 106.863 44.5C107.129 43.5 107.529 42.7833 108.063 42.35C108.629 41.9167 109.463 41.7 110.563 41.7C111.329 41.7 111.863 41.8 112.163 42C112.463 42.1667 112.613 42.5 112.613 43C112.613 43.8333 112.196 46.1167 111.363 49.85C110.429 54.1167 109.963 56.75 109.963 57.75C109.963 58.3833 110.096 58.8833 110.363 59.25C110.629 59.5833 110.979 59.75 111.413 59.75C112.079 59.75 112.863 59.35 113.763 58.55C114.696 57.7167 115.929 56.3833 117.463 54.55C117.863 54.0833 118.313 53.85 118.813 53.85C119.246 53.85 119.579 54.05 119.813 54.45C120.079 54.85 120.213 55.4 120.213 56.1C120.213 57.4333 119.896 58.4667 119.263 59.2C117.829 60.9667 116.279 62.4167 114.613 63.55C112.979 64.6833 111.113 65.25 109.013 65.25C107.413 65.25 106.229 64.6333 105.463 63.4C104.729 62.1667 104.363 60.4333 104.363 58.2C103.796 60.4667 102.946 62.2167 101.813 63.45C100.679 64.65 99.4626 65.25 98.1626 65.25ZM125.458 66.35C123.725 66.35 122.392 65.95 121.458 65.15C120.558 64.35 120.108 63.45 120.108 62.45C120.108 61.5833 120.425 60.8333 121.058 60.2C121.692 59.5667 122.625 59.25 123.858 59.25C124.292 59.25 124.792 59.3 125.358 59.4C125.958 59.4667 126.408 59.5167 126.708 59.55C126.675 58.6833 126.475 57.8667 126.108 57.1C125.775 56.3333 125.342 55.6 124.808 54.9C124.275 54.1667 123.775 53.5333 123.308 53C122.275 54.9667 121.242 56.6 120.208 57.9C119.208 59.2 118.108 60.4333 116.908 61.6C116.308 62.2 115.675 62.5 115.008 62.5C114.475 62.5 114.042 62.3167 113.708 61.95C113.375 61.55 113.208 61.0667 113.208 60.5C113.208 59.8333 113.442 59.2167 113.908 58.65L114.558 57.85C116.392 55.5833 117.775 53.7167 118.708 52.25C119.308 51.2833 119.908 50.1333 120.508 48.8C121.142 47.4667 121.958 45.65 122.958 43.35C123.592 41.8833 124.908 41.15 126.908 41.15C127.842 41.15 128.492 41.2333 128.858 41.4C129.225 41.5667 129.408 41.8333 129.408 42.2C129.408 42.4 129.342 42.7167 129.208 43.15C129.075 43.5833 128.892 44.0167 128.658 44.45C128.058 45.65 127.758 46.6667 127.758 47.5C127.758 48 127.925 48.55 128.258 49.15C128.625 49.75 129.175 50.5 129.908 51.4C130.975 52.8 131.775 54 132.308 55C132.875 55.9667 133.158 57.0333 133.158 58.2C133.158 59.6 132.825 60.9333 132.158 62.2C131.525 63.4333 130.625 64.4333 129.458 65.2C128.292 65.9667 126.958 66.35 125.458 66.35Z" transform="matrix(1 0 -0.105533 0.994416 7.75269 0)" fill="white"/>
<path d="M8.86765 21.144C7.58765 21.144 6.68632 20.7653 6.16365 20.008C5.64098 19.24 5.37965 18.184 5.37965 16.84V12.264C5.37965 10.8453 5.63565 9.768 6.14765 9.032C6.65965 8.296 7.56632 7.928 8.86765 7.928C10.0303 7.928 10.8623 8.24267 11.3636 8.872C11.8756 9.50133 12.1316 10.4293 12.1316 11.656V12.68H10.4196V11.768C10.4196 11.1707 10.393 10.712 10.3396 10.392C10.2863 10.072 10.1476 9.816 9.92365 9.624C9.71032 9.432 9.36365 9.336 8.88365 9.336C8.39298 9.336 8.02498 9.44267 7.77965 9.656C7.54498 9.85867 7.39032 10.1467 7.31565 10.52C7.24098 10.8827 7.20365 11.3733 7.20365 11.992V17.128C7.20365 17.7893 7.25698 18.3067 7.36365 18.68C7.47032 19.0533 7.64098 19.32 7.87565 19.48C8.12098 19.64 8.45698 19.72 8.88365 19.72C9.34232 19.72 9.68365 19.6187 9.90765 19.416C10.1316 19.2133 10.2703 18.936 10.3236 18.584C10.3876 18.232 10.4196 17.752 10.4196 17.144V16.184H12.1316V17.144C12.1316 18.4347 11.8863 19.4267 11.3956 20.12C10.9156 20.8027 10.073 21.144 8.86765 21.144ZM16.254 21.128C15.2727 21.128 14.574 20.84 14.158 20.264C13.7527 19.6773 13.55 18.8293 13.55 17.72V15.032C13.55 13.9227 13.7527 13.08 14.158 12.504C14.574 11.9173 15.2727 11.624 16.254 11.624C17.2247 11.624 17.9127 11.9173 18.318 12.504C18.734 13.08 18.942 13.9227 18.942 15.032V17.72C18.942 18.8293 18.734 19.6773 18.318 20.264C17.9127 20.84 17.2247 21.128 16.254 21.128ZM16.254 19.864C16.5634 19.864 16.7874 19.7733 16.926 19.592C17.0647 19.4107 17.15 19.1867 17.182 18.92C17.214 18.6533 17.23 18.2907 17.23 17.832V14.936C17.23 14.4773 17.214 14.1147 17.182 13.848C17.15 13.5707 17.0647 13.3413 16.926 13.16C16.7874 12.9787 16.5634 12.888 16.254 12.888C15.9447 12.888 15.7154 12.9787 15.566 13.16C15.4274 13.3413 15.342 13.5707 15.31 13.848C15.278 14.1147 15.262 14.4773 15.262 14.936V17.832C15.262 18.2907 15.278 18.6533 15.31 18.92C15.342 19.1867 15.4274 19.4107 15.566 19.592C15.7154 19.7733 15.9447 19.864 16.254 19.864ZM20.6669 8.04H22.3789V21H20.6669V8.04ZM26.7231 21.128C26.0085 21.128 25.4538 20.9947 25.0591 20.728C24.6645 20.4507 24.3871 20.0453 24.2271 19.512C24.0671 18.9787 23.9871 18.2853 23.9871 17.432V15.32C23.9871 14.04 24.1845 13.1067 24.5791 12.52C24.9845 11.9227 25.6991 11.624 26.7231 11.624C27.4698 11.624 28.0298 11.7787 28.4031 12.088C28.7871 12.3973 29.0378 12.8347 29.1551 13.4C29.2831 13.9547 29.3471 14.7067 29.3471 15.656V16.408H25.6991V18.264C25.6991 18.8293 25.7791 19.24 25.9391 19.496C26.1098 19.7413 26.3765 19.864 26.7391 19.864C27.1018 19.864 27.3471 19.7413 27.4751 19.496C27.6031 19.24 27.6671 18.856 27.6671 18.344V17.784H29.3311V18.136C29.3311 19.1067 29.1231 19.848 28.7071 20.36C28.2911 20.872 27.6298 21.128 26.7231 21.128ZM27.6671 15.48V14.648C27.6671 14.0187 27.6031 13.5707 27.4751 13.304C27.3578 13.0267 27.1018 12.888 26.7071 12.888C26.4298 12.888 26.2165 12.952 26.0671 13.08C25.9285 13.208 25.8325 13.4213 25.7791 13.72C25.7258 14.008 25.6991 14.4293 25.6991 14.984V15.48H27.6671ZM33.4255 21.128C32.7002 21.128 32.1402 20.984 31.7455 20.696C31.3509 20.3973 31.0789 19.9867 30.9295 19.464C30.7909 18.9307 30.7215 18.2587 30.7215 17.448V15.32C30.7215 14.488 30.7909 13.8053 30.9295 13.272C31.0789 12.7387 31.3509 12.3333 31.7455 12.056C32.1402 11.768 32.7002 11.624 33.4255 11.624C34.0869 11.624 34.5989 11.7307 34.9615 11.944C35.3349 12.1573 35.5909 12.4773 35.7295 12.904C35.8789 13.32 35.9535 13.864 35.9535 14.536V15.08H34.4015V14.52C34.4015 13.912 34.3322 13.4907 34.1935 13.256C34.0655 13.0107 33.8149 12.888 33.4415 12.888C33.1535 12.888 32.9402 12.952 32.8015 13.08C32.6629 13.208 32.5669 13.416 32.5135 13.704C32.4602 13.992 32.4335 14.4133 32.4335 14.968V17.88C32.4335 18.4133 32.4655 18.824 32.5295 19.112C32.5935 19.3893 32.6949 19.5867 32.8335 19.704C32.9829 19.8107 33.1909 19.864 33.4575 19.864C33.8522 19.864 34.1082 19.736 34.2255 19.48C34.3429 19.2133 34.4015 18.808 34.4015 18.264V17.512H35.9535V18.152C35.9535 19.1547 35.7669 19.9013 35.3935 20.392C35.0309 20.8827 34.3749 21.128 33.4255 21.128ZM33.5375 24.76C33.2282 24.76 32.8709 24.7067 32.4655 24.6V23.736C32.7215 23.8107 32.9935 23.848 33.2815 23.848C33.5695 23.848 33.8042 23.7947 33.9855 23.688C34.1669 23.592 34.2575 23.4373 34.2575 23.224C34.2575 22.9573 34.1455 22.7547 33.9215 22.616C33.7082 22.488 33.3669 22.392 32.8975 22.328V21H33.7615V21.896C34.2949 21.896 34.7215 22.0187 35.0415 22.264C35.3722 22.52 35.5375 22.856 35.5375 23.272C35.5375 23.7627 35.3509 24.1307 34.9775 24.376C34.6149 24.632 34.1349 24.76 33.5375 24.76ZM39.1396 21.128C38.7876 21.128 38.4676 21.0267 38.1796 20.824C37.9023 20.6213 37.6836 20.3547 37.5236 20.024C37.3636 19.6933 37.2836 19.3467 37.2836 18.984C37.2836 18.2587 37.4383 17.672 37.7476 17.224C38.057 16.7653 38.4516 16.4027 38.9316 16.136C39.4116 15.8693 40.0783 15.5653 40.9316 15.224V14.568C40.9316 13.96 40.8676 13.5333 40.7396 13.288C40.6223 13.032 40.377 12.904 40.0036 12.904C39.353 12.904 39.0276 13.3413 39.0276 14.216V14.68L37.3316 14.616C37.353 13.592 37.5876 12.84 38.0356 12.36C38.4836 11.8693 39.177 11.624 40.1156 11.624C41.001 11.624 41.641 11.8693 42.0356 12.36C42.441 12.84 42.6436 13.5707 42.6436 14.552V18.776C42.6436 19.4693 42.697 20.2107 42.8036 21H41.2356C41.1183 20.392 41.0436 19.9387 41.0116 19.64C40.8836 20.056 40.6596 20.408 40.3396 20.696C40.0303 20.984 39.6303 21.128 39.1396 21.128ZM39.8116 19.656C40.0356 19.656 40.2543 19.5707 40.4676 19.4C40.681 19.2187 40.8356 19.048 40.9316 18.888V16.264C40.473 16.52 40.1156 16.744 39.8596 16.936C39.6143 17.1173 39.4063 17.3307 39.2356 17.576C39.0756 17.8213 38.9956 18.1147 38.9956 18.456C38.9956 18.84 39.065 19.1387 39.2036 19.352C39.3423 19.5547 39.545 19.656 39.8116 19.656ZM41.3316 9.8C41.1183 9.8 40.921 9.76267 40.7396 9.688C40.569 9.61333 40.3716 9.50667 40.1476 9.368C39.9343 9.25067 39.7636 9.16533 39.6356 9.112C39.5076 9.048 39.3743 9.016 39.2356 9.016C39.0436 9.016 38.905 9.06933 38.8196 9.176C38.7343 9.272 38.6916 9.43733 38.6916 9.672H37.7156C37.7156 8.52 38.1423 7.944 38.9956 7.944C39.177 7.944 39.3476 7.98133 39.5076 8.056C39.6783 8.12 39.8703 8.216 40.0836 8.344C40.297 8.472 40.4676 8.568 40.5956 8.632C40.7343 8.68533 40.8783 8.712 41.0276 8.712C41.2196 8.712 41.353 8.664 41.4276 8.568C41.513 8.46133 41.5556 8.28533 41.5556 8.04H42.5156C42.5156 8.584 42.425 9.016 42.2436 9.336C42.073 9.64533 41.769 9.8 41.3316 9.8ZM46.8321 21.128C45.8508 21.128 45.1521 20.84 44.7361 20.264C44.3308 19.6773 44.1281 18.8293 44.1281 17.72V15.032C44.1281 13.9227 44.3308 13.08 44.7361 12.504C45.1521 11.9173 45.8508 11.624 46.8321 11.624C47.8028 11.624 48.4908 11.9173 48.8961 12.504C49.3121 13.08 49.5201 13.9227 49.5201 15.032V17.72C49.5201 18.8293 49.3121 19.6773 48.8961 20.264C48.4908 20.84 47.8028 21.128 46.8321 21.128ZM46.8321 19.864C47.1415 19.864 47.3655 19.7733 47.5041 19.592C47.6428 19.4107 47.7281 19.1867 47.7601 18.92C47.7921 18.6533 47.8081 18.2907 47.8081 17.832V14.936C47.8081 14.4773 47.7921 14.1147 47.7601 13.848C47.7281 13.5707 47.6428 13.3413 47.5041 13.16C47.3655 12.9787 47.1415 12.888 46.8321 12.888C46.5228 12.888 46.2935 12.9787 46.1441 13.16C46.0055 13.3413 45.9201 13.5707 45.8881 13.848C45.8561 14.1147 45.8401 14.4773 45.8401 14.936V17.832C45.8401 18.2907 45.8561 18.6533 45.8881 18.92C45.9201 19.1867 46.0055 19.4107 46.1441 19.592C46.2935 19.7733 46.5228 19.864 46.8321 19.864ZM56.8853 21.128C56.0853 21.128 55.4986 20.84 55.1253 20.264C54.7519 19.6773 54.5653 18.712 54.5653 17.368V15.576C54.5653 14.3493 54.7253 13.384 55.0453 12.68C55.3759 11.976 55.9733 11.624 56.8373 11.624C57.3813 11.624 57.8933 11.864 58.3733 12.344V8.04H60.0853V21H58.3733V20.408C57.9253 20.888 57.4293 21.128 56.8853 21.128ZM57.3173 19.784C57.6586 19.784 58.0106 19.6667 58.3733 19.432V13.368C57.9786 13.1013 57.6159 12.968 57.2853 12.968C56.6133 12.968 56.2773 13.6133 56.2773 14.904V17.512C56.2773 18.2587 56.3466 18.824 56.4853 19.208C56.6239 19.592 56.9013 19.784 57.3173 19.784ZM64.3794 21.128C63.6647 21.128 63.1101 20.9947 62.7154 20.728C62.3207 20.4507 62.0434 20.0453 61.8834 19.512C61.7234 18.9787 61.6434 18.2853 61.6434 17.432V15.32C61.6434 14.04 61.8407 13.1067 62.2354 12.52C62.6407 11.9227 63.3554 11.624 64.3794 11.624C65.1261 11.624 65.6861 11.7787 66.0594 12.088C66.4434 12.3973 66.6941 12.8347 66.8114 13.4C66.9394 13.9547 67.0034 14.7067 67.0034 15.656V16.408H63.3554V18.264C63.3554 18.8293 63.4354 19.24 63.5954 19.496C63.7661 19.7413 64.0327 19.864 64.3954 19.864C64.7581 19.864 65.0034 19.7413 65.1314 19.496C65.2594 19.24 65.3234 18.856 65.3234 18.344V17.784H66.9874V18.136C66.9874 19.1067 66.7794 19.848 66.3634 20.36C65.9474 20.872 65.2861 21.128 64.3794 21.128ZM65.3234 15.48V14.648C65.3234 14.0187 65.2594 13.5707 65.1314 13.304C65.0141 13.0267 64.7581 12.888 64.3634 12.888C64.0861 12.888 63.8727 12.952 63.7234 13.08C63.5847 13.208 63.4887 13.4213 63.4354 13.72C63.3821 14.008 63.3554 14.4293 63.3554 14.984V15.48H65.3234ZM74.354 21.128C73.554 21.128 72.9674 20.84 72.594 20.264C72.2207 19.6773 72.034 18.712 72.034 17.368V15.576C72.034 14.3493 72.194 13.384 72.514 12.68C72.8447 11.976 73.442 11.624 74.306 11.624C74.85 11.624 75.362 11.864 75.842 12.344V8.04H77.554V21H75.842V20.408C75.394 20.888 74.898 21.128 74.354 21.128ZM74.786 19.784C75.1274 19.784 75.4794 19.6667 75.842 19.432V13.368C75.4474 13.1013 75.0847 12.968 74.754 12.968C74.082 12.968 73.746 13.6133 73.746 14.904V17.512C73.746 18.2587 73.8154 18.824 73.954 19.208C74.0927 19.592 74.37 19.784 74.786 19.784ZM79.4001 8.584H81.1121V10.376H79.4001V8.584ZM79.4001 11.752H81.1121V21H79.4001V11.752ZM82.3204 11.752H84.0484L85.1844 19.192L86.3364 11.752H88.0004L86.2404 21H84.1444L82.3204 11.752ZM90.7646 21.128C90.4126 21.128 90.0926 21.0267 89.8046 20.824C89.5273 20.6213 89.3086 20.3547 89.1486 20.024C88.9886 19.6933 88.9086 19.3467 88.9086 18.984C88.9086 18.2587 89.0633 17.672 89.3726 17.224C89.682 16.7653 90.0766 16.4027 90.5566 16.136C91.0366 15.8693 91.7033 15.5653 92.5566 15.224V14.568C92.5566 13.96 92.4926 13.5333 92.3646 13.288C92.2473 13.032 92.002 12.904 91.6286 12.904C90.978 12.904 90.6526 13.3413 90.6526 14.216V14.68L88.9566 14.616C88.978 13.592 89.2126 12.84 89.6606 12.36C90.1086 11.8693 90.802 11.624 91.7406 11.624C92.626 11.624 93.266 11.8693 93.6606 12.36C94.066 12.84 94.2686 13.5707 94.2686 14.552V18.776C94.2686 19.4693 94.322 20.2107 94.4286 21H92.8606C92.7433 20.392 92.6686 19.9387 92.6366 19.64C92.5086 20.056 92.2846 20.408 91.9646 20.696C91.6553 20.984 91.2553 21.128 90.7646 21.128ZM91.4366 19.656C91.6606 19.656 91.8793 19.5707 92.0926 19.4C92.306 19.2187 92.4606 19.048 92.5566 18.888V16.264C92.098 16.52 91.7406 16.744 91.4846 16.936C91.2393 17.1173 91.0313 17.3307 90.8606 17.576C90.7006 17.8213 90.6206 18.1147 90.6206 18.456C90.6206 18.84 90.69 19.1387 90.8286 19.352C90.9673 19.5547 91.17 19.656 91.4366 19.656ZM98.0571 21.128C97.3105 21.128 96.7025 20.8933 96.2331 20.424C95.7745 19.9547 95.5131 19.3253 95.4491 18.536L96.8731 18.104C96.9585 18.7013 97.1025 19.144 97.3051 19.432C97.5185 19.72 97.8171 19.864 98.2011 19.864C98.4998 19.864 98.7291 19.7787 98.8891 19.608C99.0598 19.4267 99.1451 19.1867 99.1451 18.888C99.1451 18.6213 99.0865 18.3813 98.9691 18.168C98.8518 17.9547 98.6598 17.736 98.3931 17.512L96.8091 16.152C96.4465 15.8427 96.1638 15.5173 95.9611 15.176C95.7691 14.824 95.6731 14.3973 95.6731 13.896C95.6731 13.1813 95.8865 12.6267 96.3131 12.232C96.7398 11.8267 97.3211 11.624 98.0571 11.624C98.7611 11.624 99.3105 11.8533 99.7051 12.312C100.11 12.76 100.345 13.3413 100.409 14.056L99.2571 14.488C99.1825 13.9653 99.0598 13.5707 98.8891 13.304C98.7185 13.0267 98.4625 12.888 98.1211 12.888C97.8438 12.888 97.6198 12.9787 97.4491 13.16C97.2891 13.3413 97.2091 13.5653 97.2091 13.832C97.2091 14.1733 97.3638 14.4827 97.6731 14.76L99.3051 16.264C99.7211 16.648 100.041 17.0267 100.265 17.4C100.5 17.7733 100.617 18.2267 100.617 18.76C100.617 19.528 100.388 20.1147 99.9291 20.52C99.4705 20.9253 98.8465 21.128 98.0571 21.128Z" transform="matrix(1 0 -0.105533 0.994416 23.759 64)" fill="white"/>
</svg>
